<mxfile host="Electron" modified="2024-03-15T05:53:57.653Z" agent="Mozilla/5.0 (Windows NT 10.0; Win64; x64) AppleWebKit/537.36 (KHTML, like Gecko) draw.io/21.6.8 Chrome/114.0.5735.289 Electron/25.5.0 Safari/537.36" etag="RE_eVl9X5SPcAZump-DB" version="21.6.8" type="device">
  <diagram name="Page-1" id="b3SpOC8oERK6x6DLKKSo">
    <mxGraphModel dx="2127" dy="1410" grid="0" gridSize="10" guides="1" tooltips="1" connect="1" arrows="1" fold="1" page="0" pageScale="1" pageWidth="827" pageHeight="1169" background="#FFFFFF" math="0" shadow="1">
      <root>
        <mxCell id="0" />
        <mxCell id="1" parent="0" />
        <mxCell id="IzEAuHKMeDHGihRWkI3z-1" value="&lt;i&gt;&lt;font style=&quot;font-size: 14px;&quot;&gt;CarePet&lt;/font&gt;&lt;/i&gt;" style="swimlane;fontStyle=1;align=center;verticalAlign=top;childLayout=stackLayout;horizontal=1;startSize=26;horizontalStack=0;resizeParent=1;resizeParentMax=0;resizeLast=0;collapsible=1;marginBottom=0;whiteSpace=wrap;html=1;fillColor=#0050ef;fontColor=#FFFFFF;strokeColor=#001DBC;strokeWidth=3;" parent="1" vertex="1">
          <mxGeometry x="300" y="160" width="160" height="168" as="geometry">
            <mxRectangle x="310" y="80" width="90" height="30" as="alternateBounds" />
          </mxGeometry>
        </mxCell>
        <mxCell id="IzEAuHKMeDHGihRWkI3z-2" value="- id :int&lt;br&gt;- name :string&lt;br&gt;- category : string&lt;br&gt;- createdDate : date" style="text;strokeColor=none;fillColor=none;align=left;verticalAlign=top;spacingLeft=4;spacingRight=4;overflow=hidden;rotatable=0;points=[[0,0.5],[1,0.5]];portConstraint=eastwest;whiteSpace=wrap;html=1;fontColor=#000000;" parent="IzEAuHKMeDHGihRWkI3z-1" vertex="1">
          <mxGeometry y="26" width="160" height="74" as="geometry" />
        </mxCell>
        <mxCell id="IzEAuHKMeDHGihRWkI3z-3" value="" style="line;strokeWidth=1;fillColor=none;align=left;verticalAlign=middle;spacingTop=-1;spacingLeft=3;spacingRight=3;rotatable=0;labelPosition=right;points=[];portConstraint=eastwest;strokeColor=inherit;fontColor=#000000;" parent="IzEAuHKMeDHGihRWkI3z-1" vertex="1">
          <mxGeometry y="100" width="160" height="8" as="geometry" />
        </mxCell>
        <mxCell id="IzEAuHKMeDHGihRWkI3z-4" value="+ updateAPP()&lt;br&gt;+ displayPost()&lt;br&gt;+ responseUsers()" style="text;strokeColor=none;fillColor=none;align=left;verticalAlign=top;spacingLeft=4;spacingRight=4;overflow=hidden;rotatable=0;points=[[0,0.5],[1,0.5]];portConstraint=eastwest;whiteSpace=wrap;html=1;fontColor=#000000;" parent="IzEAuHKMeDHGihRWkI3z-1" vertex="1">
          <mxGeometry y="108" width="160" height="60" as="geometry" />
        </mxCell>
        <mxCell id="IzEAuHKMeDHGihRWkI3z-5" value="&lt;i&gt;&lt;font style=&quot;font-size: 14px;&quot;&gt;User&lt;/font&gt;&lt;/i&gt;" style="swimlane;fontStyle=1;align=center;verticalAlign=top;childLayout=stackLayout;horizontal=1;startSize=26;horizontalStack=0;resizeParent=1;resizeParentMax=0;resizeLast=0;collapsible=1;marginBottom=0;whiteSpace=wrap;html=1;fillColor=#0050ef;strokeColor=#001DBC;strokeWidth=3;fontColor=#FFFFFF;" parent="1" vertex="1">
          <mxGeometry y="-40" width="160" height="230" as="geometry">
            <mxRectangle x="310" y="80" width="90" height="30" as="alternateBounds" />
          </mxGeometry>
        </mxCell>
        <mxCell id="IzEAuHKMeDHGihRWkI3z-6" value="- id : int&lt;br&gt;- name : string&lt;br&gt;- email : string&lt;br&gt;- password : int" style="text;strokeColor=none;fillColor=none;align=left;verticalAlign=top;spacingLeft=4;spacingRight=4;overflow=hidden;rotatable=0;points=[[0,0.5],[1,0.5]];portConstraint=eastwest;whiteSpace=wrap;html=1;fontColor=#000000;" parent="IzEAuHKMeDHGihRWkI3z-5" vertex="1">
          <mxGeometry y="26" width="160" height="74" as="geometry" />
        </mxCell>
        <mxCell id="IzEAuHKMeDHGihRWkI3z-7" value="" style="line;strokeWidth=1;fillColor=none;align=left;verticalAlign=middle;spacingTop=-1;spacingLeft=3;spacingRight=3;rotatable=0;labelPosition=right;points=[];portConstraint=eastwest;strokeColor=inherit;fontColor=#000000;" parent="IzEAuHKMeDHGihRWkI3z-5" vertex="1">
          <mxGeometry y="100" width="160" height="8" as="geometry" />
        </mxCell>
        <mxCell id="IzEAuHKMeDHGihRWkI3z-8" value="+ login()&lt;br&gt;+ updateProfile()&lt;br&gt;+ comunicate()&lt;br&gt;+ findBreed()&lt;br&gt;+ findDisease()&lt;br&gt;+ findShelters()&lt;br&gt;+ addPost()" style="text;strokeColor=none;fillColor=none;align=left;verticalAlign=top;spacingLeft=4;spacingRight=4;overflow=hidden;rotatable=0;points=[[0,0.5],[1,0.5]];portConstraint=eastwest;whiteSpace=wrap;html=1;strokeWidth=3;fontColor=#000000;" parent="IzEAuHKMeDHGihRWkI3z-5" vertex="1">
          <mxGeometry y="108" width="160" height="122" as="geometry" />
        </mxCell>
        <mxCell id="IzEAuHKMeDHGihRWkI3z-9" value="&lt;i&gt;&lt;font style=&quot;font-size: 14px;&quot;&gt;Friend&lt;/font&gt;&lt;/i&gt;" style="swimlane;fontStyle=1;align=center;verticalAlign=top;childLayout=stackLayout;horizontal=1;startSize=26;horizontalStack=0;resizeParent=1;resizeParentMax=0;resizeLast=0;collapsible=1;marginBottom=0;whiteSpace=wrap;html=1;fillColor=#0050ef;fontColor=#FFFFFF;strokeColor=#001DBC;strokeWidth=3;" parent="1" vertex="1">
          <mxGeometry x="540" y="-40" width="160" height="180" as="geometry">
            <mxRectangle x="310" y="80" width="90" height="30" as="alternateBounds" />
          </mxGeometry>
        </mxCell>
        <mxCell id="IzEAuHKMeDHGihRWkI3z-10" value="-&amp;nbsp; id : int&lt;br&gt;- name :string&lt;br&gt;- email : string&lt;br&gt;- phoneNo : int" style="text;strokeColor=none;fillColor=none;align=left;verticalAlign=top;spacingLeft=4;spacingRight=4;overflow=hidden;rotatable=0;points=[[0,0.5],[1,0.5]];portConstraint=eastwest;whiteSpace=wrap;html=1;fontColor=#000000;" parent="IzEAuHKMeDHGihRWkI3z-9" vertex="1">
          <mxGeometry y="26" width="160" height="74" as="geometry" />
        </mxCell>
        <mxCell id="IzEAuHKMeDHGihRWkI3z-11" value="" style="line;strokeWidth=1;fillColor=none;align=left;verticalAlign=middle;spacingTop=-1;spacingLeft=3;spacingRight=3;rotatable=0;labelPosition=right;points=[];portConstraint=eastwest;strokeColor=inherit;fontColor=#000000;" parent="IzEAuHKMeDHGihRWkI3z-9" vertex="1">
          <mxGeometry y="100" width="160" height="8" as="geometry" />
        </mxCell>
        <mxCell id="IzEAuHKMeDHGihRWkI3z-12" value="+ communicate()&lt;br&gt;+ addPost()&lt;br&gt;+ viewPetsUpdates()&lt;br&gt;+ tryPetServices()&lt;br&gt;" style="text;strokeColor=none;fillColor=none;align=left;verticalAlign=top;spacingLeft=4;spacingRight=4;overflow=hidden;rotatable=0;points=[[0,0.5],[1,0.5]];portConstraint=eastwest;whiteSpace=wrap;html=1;fontColor=#000000;" parent="IzEAuHKMeDHGihRWkI3z-9" vertex="1">
          <mxGeometry y="108" width="160" height="72" as="geometry" />
        </mxCell>
        <mxCell id="IzEAuHKMeDHGihRWkI3z-13" value="&lt;i&gt;&lt;font style=&quot;font-size: 14px;&quot;&gt;Vet&lt;/font&gt;&lt;/i&gt;" style="swimlane;fontStyle=1;align=center;verticalAlign=top;childLayout=stackLayout;horizontal=1;startSize=26;horizontalStack=0;resizeParent=1;resizeParentMax=0;resizeLast=0;collapsible=1;marginBottom=0;whiteSpace=wrap;html=1;fillColor=#0050ef;strokeColor=#001DBC;strokeWidth=3;fontColor=#FFFFFF;" parent="1" vertex="1">
          <mxGeometry x="-280" y="309" width="160" height="190" as="geometry">
            <mxRectangle x="310" y="80" width="90" height="30" as="alternateBounds" />
          </mxGeometry>
        </mxCell>
        <mxCell id="IzEAuHKMeDHGihRWkI3z-14" value="-&amp;nbsp; id : int&lt;br&gt;- name :string&lt;br&gt;- email : string&lt;br&gt;- phoneNo : int&lt;br&gt;- specilization : string" style="text;strokeColor=none;fillColor=none;align=left;verticalAlign=top;spacingLeft=4;spacingRight=4;overflow=hidden;rotatable=0;points=[[0,0.5],[1,0.5]];portConstraint=eastwest;whiteSpace=wrap;html=1;fontColor=#000000;" parent="IzEAuHKMeDHGihRWkI3z-13" vertex="1">
          <mxGeometry y="26" width="160" height="84" as="geometry" />
        </mxCell>
        <mxCell id="IzEAuHKMeDHGihRWkI3z-15" value="" style="line;strokeWidth=1;fillColor=none;align=left;verticalAlign=middle;spacingTop=-1;spacingLeft=3;spacingRight=3;rotatable=0;labelPosition=right;points=[];portConstraint=eastwest;strokeColor=inherit;fontColor=#000000;" parent="IzEAuHKMeDHGihRWkI3z-13" vertex="1">
          <mxGeometry y="110" width="160" height="8" as="geometry" />
        </mxCell>
        <mxCell id="IzEAuHKMeDHGihRWkI3z-16" value="+ aproveAppoiments()&lt;br&gt;+communicate()&lt;br&gt;+ addPost()&lt;br&gt;+ updatePetDeseases()" style="text;strokeColor=none;fillColor=none;align=left;verticalAlign=top;spacingLeft=4;spacingRight=4;overflow=hidden;rotatable=0;points=[[0,0.5],[1,0.5]];portConstraint=eastwest;whiteSpace=wrap;html=1;fontColor=#000000;" parent="IzEAuHKMeDHGihRWkI3z-13" vertex="1">
          <mxGeometry y="118" width="160" height="72" as="geometry" />
        </mxCell>
        <mxCell id="IzEAuHKMeDHGihRWkI3z-17" value="&lt;i&gt;&lt;font style=&quot;font-size: 14px;&quot;&gt;Trainer&lt;/font&gt;&lt;/i&gt;" style="swimlane;fontStyle=1;align=center;verticalAlign=top;childLayout=stackLayout;horizontal=1;startSize=26;horizontalStack=0;resizeParent=1;resizeParentMax=0;resizeLast=0;collapsible=1;marginBottom=0;whiteSpace=wrap;html=1;fillColor=#0050ef;strokeColor=#001DBC;strokeWidth=3;fontColor=#FFFFFF;" parent="1" vertex="1">
          <mxGeometry x="-10" y="519" width="160" height="210" as="geometry">
            <mxRectangle x="310" y="80" width="90" height="30" as="alternateBounds" />
          </mxGeometry>
        </mxCell>
        <mxCell id="IzEAuHKMeDHGihRWkI3z-18" value="-&amp;nbsp; id : int&lt;br&gt;- name :string&lt;br&gt;- email : string&lt;br&gt;- phoneNo : int&lt;br&gt;" style="text;strokeColor=none;fillColor=none;align=left;verticalAlign=top;spacingLeft=4;spacingRight=4;overflow=hidden;rotatable=0;points=[[0,0.5],[1,0.5]];portConstraint=eastwest;whiteSpace=wrap;html=1;fontColor=#000000;" parent="IzEAuHKMeDHGihRWkI3z-17" vertex="1">
          <mxGeometry y="26" width="160" height="74" as="geometry" />
        </mxCell>
        <mxCell id="IzEAuHKMeDHGihRWkI3z-19" value="" style="line;strokeWidth=1;fillColor=none;align=left;verticalAlign=middle;spacingTop=-1;spacingLeft=3;spacingRight=3;rotatable=0;labelPosition=right;points=[];portConstraint=eastwest;strokeColor=inherit;fontColor=#000000;" parent="IzEAuHKMeDHGihRWkI3z-17" vertex="1">
          <mxGeometry y="100" width="160" height="8" as="geometry" />
        </mxCell>
        <mxCell id="IzEAuHKMeDHGihRWkI3z-20" value="+ login()&lt;br&gt;+ communicate()&lt;br&gt;+&amp;nbsp;viewTrainingRequests()&lt;br&gt;+&amp;nbsp;provideTrainingSession()&lt;br&gt;+&amp;nbsp;trackTrainingProgress()&lt;br&gt;+ checkappoiments()" style="text;strokeColor=none;fillColor=none;align=left;verticalAlign=top;spacingLeft=4;spacingRight=4;overflow=hidden;rotatable=0;points=[[0,0.5],[1,0.5]];portConstraint=eastwest;whiteSpace=wrap;html=1;fontColor=#000000;" parent="IzEAuHKMeDHGihRWkI3z-17" vertex="1">
          <mxGeometry y="108" width="160" height="102" as="geometry" />
        </mxCell>
        <mxCell id="IzEAuHKMeDHGihRWkI3z-21" value="&lt;i&gt;&lt;font style=&quot;font-size: 14px;&quot;&gt;Pet_Tracker&lt;/font&gt;&lt;/i&gt;" style="swimlane;fontStyle=1;align=center;verticalAlign=top;childLayout=stackLayout;horizontal=1;startSize=26;horizontalStack=0;resizeParent=1;resizeParentMax=0;resizeLast=0;collapsible=1;marginBottom=0;whiteSpace=wrap;html=1;fillColor=#0050ef;strokeColor=#001DBC;strokeWidth=3;fontColor=#FFFFFF;" parent="1" vertex="1">
          <mxGeometry x="-290" y="-40" width="160" height="120" as="geometry">
            <mxRectangle x="310" y="80" width="90" height="30" as="alternateBounds" />
          </mxGeometry>
        </mxCell>
        <mxCell id="IzEAuHKMeDHGihRWkI3z-22" value="-&amp;nbsp; id : int&lt;br&gt;- pet_id : int" style="text;strokeColor=none;fillColor=none;align=left;verticalAlign=top;spacingLeft=4;spacingRight=4;overflow=hidden;rotatable=0;points=[[0,0.5],[1,0.5]];portConstraint=eastwest;whiteSpace=wrap;html=1;fontColor=#000000;" parent="IzEAuHKMeDHGihRWkI3z-21" vertex="1">
          <mxGeometry y="26" width="160" height="44" as="geometry" />
        </mxCell>
        <mxCell id="IzEAuHKMeDHGihRWkI3z-23" value="" style="line;strokeWidth=1;fillColor=none;align=left;verticalAlign=middle;spacingTop=-1;spacingLeft=3;spacingRight=3;rotatable=0;labelPosition=right;points=[];portConstraint=eastwest;strokeColor=inherit;fontColor=#000000;" parent="IzEAuHKMeDHGihRWkI3z-21" vertex="1">
          <mxGeometry y="70" width="160" height="8" as="geometry" />
        </mxCell>
        <mxCell id="IzEAuHKMeDHGihRWkI3z-24" value="+ trackingPet()&lt;br&gt;+displayPetlocation()&lt;br&gt;" style="text;strokeColor=none;fillColor=none;align=left;verticalAlign=top;spacingLeft=4;spacingRight=4;overflow=hidden;rotatable=0;points=[[0,0.5],[1,0.5]];portConstraint=eastwest;whiteSpace=wrap;html=1;fontColor=#000000;" parent="IzEAuHKMeDHGihRWkI3z-21" vertex="1">
          <mxGeometry y="78" width="160" height="42" as="geometry" />
        </mxCell>
        <mxCell id="IzEAuHKMeDHGihRWkI3z-25" value="&lt;i&gt;&lt;font style=&quot;font-size: 14px;&quot;&gt;Certificate&lt;/font&gt;&lt;/i&gt;" style="swimlane;fontStyle=1;align=center;verticalAlign=top;childLayout=stackLayout;horizontal=1;startSize=26;horizontalStack=0;resizeParent=1;resizeParentMax=0;resizeLast=0;collapsible=1;marginBottom=0;whiteSpace=wrap;html=1;fillColor=#0050ef;strokeColor=#001DBC;strokeWidth=3;fontColor=#FFFFFF;" parent="1" vertex="1">
          <mxGeometry x="-284" y="580" width="160" height="150" as="geometry">
            <mxRectangle x="310" y="80" width="90" height="30" as="alternateBounds" />
          </mxGeometry>
        </mxCell>
        <mxCell id="IzEAuHKMeDHGihRWkI3z-26" value="- id : int&lt;br&gt;- category : string&lt;br&gt;- v_id : int&lt;br&gt;- expiration : date" style="text;strokeColor=none;fillColor=none;align=left;verticalAlign=top;spacingLeft=4;spacingRight=4;overflow=hidden;rotatable=0;points=[[0,0.5],[1,0.5]];portConstraint=eastwest;whiteSpace=wrap;html=1;fontColor=#000000;" parent="IzEAuHKMeDHGihRWkI3z-25" vertex="1">
          <mxGeometry y="26" width="160" height="74" as="geometry" />
        </mxCell>
        <mxCell id="IzEAuHKMeDHGihRWkI3z-27" value="" style="line;strokeWidth=1;fillColor=none;align=left;verticalAlign=middle;spacingTop=-1;spacingLeft=3;spacingRight=3;rotatable=0;labelPosition=right;points=[];portConstraint=eastwest;strokeColor=inherit;fontColor=#000000;" parent="IzEAuHKMeDHGihRWkI3z-25" vertex="1">
          <mxGeometry y="100" width="160" height="8" as="geometry" />
        </mxCell>
        <mxCell id="IzEAuHKMeDHGihRWkI3z-28" value="+ createCertificate()&lt;br&gt;+updateCertificate()" style="text;strokeColor=none;fillColor=none;align=left;verticalAlign=top;spacingLeft=4;spacingRight=4;overflow=hidden;rotatable=0;points=[[0,0.5],[1,0.5]];portConstraint=eastwest;whiteSpace=wrap;html=1;fontColor=#000000;" parent="IzEAuHKMeDHGihRWkI3z-25" vertex="1">
          <mxGeometry y="108" width="160" height="42" as="geometry" />
        </mxCell>
        <mxCell id="IzEAuHKMeDHGihRWkI3z-29" value="&lt;i&gt;&lt;font style=&quot;font-size: 14px;&quot;&gt;Petcare&lt;/font&gt;&lt;/i&gt;" style="swimlane;fontStyle=1;align=center;verticalAlign=top;childLayout=stackLayout;horizontal=1;startSize=26;horizontalStack=0;resizeParent=1;resizeParentMax=0;resizeLast=0;collapsible=1;marginBottom=0;whiteSpace=wrap;html=1;fillColor=#0050ef;fontColor=#FFFFFF;strokeColor=#001DBC;strokeWidth=3;" parent="1" vertex="1">
          <mxGeometry x="340" y="400" width="160" height="86" as="geometry">
            <mxRectangle x="310" y="80" width="90" height="30" as="alternateBounds" />
          </mxGeometry>
        </mxCell>
        <mxCell id="IzEAuHKMeDHGihRWkI3z-30" value="- id : int" style="text;strokeColor=none;fillColor=none;align=left;verticalAlign=top;spacingLeft=4;spacingRight=4;overflow=hidden;rotatable=0;points=[[0,0.5],[1,0.5]];portConstraint=eastwest;whiteSpace=wrap;html=1;fontColor=#000000;" parent="IzEAuHKMeDHGihRWkI3z-29" vertex="1">
          <mxGeometry y="26" width="160" height="26" as="geometry" />
        </mxCell>
        <mxCell id="IzEAuHKMeDHGihRWkI3z-31" value="" style="line;strokeWidth=1;fillColor=none;align=left;verticalAlign=middle;spacingTop=-1;spacingLeft=3;spacingRight=3;rotatable=0;labelPosition=right;points=[];portConstraint=eastwest;strokeColor=inherit;fontColor=#000000;" parent="IzEAuHKMeDHGihRWkI3z-29" vertex="1">
          <mxGeometry y="52" width="160" height="8" as="geometry" />
        </mxCell>
        <mxCell id="IzEAuHKMeDHGihRWkI3z-32" value="+ userEnrollToFunctions()" style="text;strokeColor=none;fillColor=none;align=left;verticalAlign=top;spacingLeft=4;spacingRight=4;overflow=hidden;rotatable=0;points=[[0,0.5],[1,0.5]];portConstraint=eastwest;whiteSpace=wrap;html=1;fontColor=#000000;" parent="IzEAuHKMeDHGihRWkI3z-29" vertex="1">
          <mxGeometry y="60" width="160" height="26" as="geometry" />
        </mxCell>
        <mxCell id="IzEAuHKMeDHGihRWkI3z-53" value="&lt;i&gt;&lt;font style=&quot;font-size: 14px;&quot;&gt;Breed&lt;/font&gt;&lt;/i&gt;" style="swimlane;fontStyle=1;align=center;verticalAlign=top;childLayout=stackLayout;horizontal=1;startSize=26;horizontalStack=0;resizeParent=1;resizeParentMax=0;resizeLast=0;collapsible=1;marginBottom=0;whiteSpace=wrap;html=1;fillColor=#0050ef;strokeColor=#001DBC;fontColor=#FFFFFF;strokeWidth=3;" parent="1" vertex="1">
          <mxGeometry x="220" y="542" width="170" height="198" as="geometry">
            <mxRectangle x="310" y="80" width="90" height="30" as="alternateBounds" />
          </mxGeometry>
        </mxCell>
        <mxCell id="IzEAuHKMeDHGihRWkI3z-54" value="- id : int&lt;br&gt;- name : string&lt;br&gt;- description : string&lt;br&gt;- category : string" style="text;strokeColor=none;fillColor=none;align=left;verticalAlign=top;spacingLeft=4;spacingRight=4;overflow=hidden;rotatable=0;points=[[0,0.5],[1,0.5]];portConstraint=eastwest;whiteSpace=wrap;html=1;fontColor=#000000;" parent="IzEAuHKMeDHGihRWkI3z-53" vertex="1">
          <mxGeometry y="26" width="170" height="74" as="geometry" />
        </mxCell>
        <mxCell id="IzEAuHKMeDHGihRWkI3z-55" value="" style="line;strokeWidth=1;fillColor=none;align=left;verticalAlign=middle;spacingTop=-1;spacingLeft=3;spacingRight=3;rotatable=0;labelPosition=right;points=[];portConstraint=eastwest;strokeColor=inherit;fontColor=#000000;" parent="IzEAuHKMeDHGihRWkI3z-53" vertex="1">
          <mxGeometry y="100" width="170" height="8" as="geometry" />
        </mxCell>
        <mxCell id="IzEAuHKMeDHGihRWkI3z-56" value="+ checkBreedName()&lt;br&gt;+ checkOrigin()&lt;br&gt;+ getDescription()&lt;br&gt;+ checkCharacteristics()&lt;br&gt;+&amp;nbsp;getCommonHealthIssues()" style="text;strokeColor=none;fillColor=none;align=left;verticalAlign=top;spacingLeft=4;spacingRight=4;overflow=hidden;rotatable=0;points=[[0,0.5],[1,0.5]];portConstraint=eastwest;whiteSpace=wrap;html=1;fontColor=#000000;" parent="IzEAuHKMeDHGihRWkI3z-53" vertex="1">
          <mxGeometry y="108" width="170" height="90" as="geometry" />
        </mxCell>
        <mxCell id="IzEAuHKMeDHGihRWkI3z-57" value="&lt;i&gt;&lt;font style=&quot;font-size: 14px;&quot;&gt;Skin_Disease&lt;/font&gt;&lt;/i&gt;" style="swimlane;fontStyle=1;align=center;verticalAlign=top;childLayout=stackLayout;horizontal=1;startSize=26;horizontalStack=0;resizeParent=1;resizeParentMax=0;resizeLast=0;collapsible=1;marginBottom=0;whiteSpace=wrap;html=1;fillColor=#0050ef;fontColor=#FFFFFF;strokeColor=#001DBC;strokeWidth=3;" parent="1" vertex="1">
          <mxGeometry x="410" y="541" width="180" height="200" as="geometry">
            <mxRectangle x="310" y="80" width="90" height="30" as="alternateBounds" />
          </mxGeometry>
        </mxCell>
        <mxCell id="IzEAuHKMeDHGihRWkI3z-58" value="- id : int&lt;br&gt;- name : string&lt;br&gt;- description : string&lt;br&gt;- category : string" style="text;strokeColor=none;fillColor=none;align=left;verticalAlign=top;spacingLeft=4;spacingRight=4;overflow=hidden;rotatable=0;points=[[0,0.5],[1,0.5]];portConstraint=eastwest;whiteSpace=wrap;html=1;fontColor=#000000;" parent="IzEAuHKMeDHGihRWkI3z-57" vertex="1">
          <mxGeometry y="26" width="180" height="74" as="geometry" />
        </mxCell>
        <mxCell id="IzEAuHKMeDHGihRWkI3z-59" value="" style="line;strokeWidth=1;fillColor=none;align=left;verticalAlign=middle;spacingTop=-1;spacingLeft=3;spacingRight=3;rotatable=0;labelPosition=right;points=[];portConstraint=eastwest;strokeColor=inherit;fontColor=#000000;" parent="IzEAuHKMeDHGihRWkI3z-57" vertex="1">
          <mxGeometry y="100" width="180" height="8" as="geometry" />
        </mxCell>
        <mxCell id="IzEAuHKMeDHGihRWkI3z-60" value="+&amp;nbsp;addSkinDisease()&lt;br&gt;+&amp;nbsp;updateSkinDisease()&lt;br&gt;+ checkSkinDiseaseDetails()&lt;br&gt;+&amp;nbsp;searchSkinDisease()&lt;br&gt;+getCategoryOfSkinDisease()" style="text;strokeColor=none;fillColor=none;align=left;verticalAlign=top;spacingLeft=4;spacingRight=4;overflow=hidden;rotatable=0;points=[[0,0.5],[1,0.5]];portConstraint=eastwest;whiteSpace=wrap;html=1;fontColor=#000000;" parent="IzEAuHKMeDHGihRWkI3z-57" vertex="1">
          <mxGeometry y="108" width="180" height="92" as="geometry" />
        </mxCell>
        <mxCell id="IzEAuHKMeDHGihRWkI3z-61" value="&lt;i&gt;&lt;font style=&quot;font-size: 14px;&quot;&gt;Insurance&lt;/font&gt;&lt;/i&gt;" style="swimlane;fontStyle=1;align=center;verticalAlign=top;childLayout=stackLayout;horizontal=1;startSize=26;horizontalStack=0;resizeParent=1;resizeParentMax=0;resizeLast=0;collapsible=1;marginBottom=0;whiteSpace=wrap;html=1;fillColor=#0050ef;fontColor=#FFFFFF;strokeColor=#001DBC;strokeWidth=3;" parent="1" vertex="1">
          <mxGeometry x="640" y="542" width="160" height="160" as="geometry">
            <mxRectangle x="310" y="80" width="90" height="30" as="alternateBounds" />
          </mxGeometry>
        </mxCell>
        <mxCell id="IzEAuHKMeDHGihRWkI3z-62" value="- id : int&lt;br&gt;- user_id : int&lt;br&gt;- coverage : string&lt;br&gt;- category : string&lt;br&gt;- phoneNo : int" style="text;strokeColor=none;fillColor=none;align=left;verticalAlign=top;spacingLeft=4;spacingRight=4;overflow=hidden;rotatable=0;points=[[0,0.5],[1,0.5]];portConstraint=eastwest;whiteSpace=wrap;html=1;fontColor=#000000;" parent="IzEAuHKMeDHGihRWkI3z-61" vertex="1">
          <mxGeometry y="26" width="160" height="84" as="geometry" />
        </mxCell>
        <mxCell id="IzEAuHKMeDHGihRWkI3z-63" value="" style="line;strokeWidth=1;fillColor=none;align=left;verticalAlign=middle;spacingTop=-1;spacingLeft=3;spacingRight=3;rotatable=0;labelPosition=right;points=[];portConstraint=eastwest;strokeColor=inherit;fontColor=#000000;" parent="IzEAuHKMeDHGihRWkI3z-61" vertex="1">
          <mxGeometry y="110" width="160" height="8" as="geometry" />
        </mxCell>
        <mxCell id="IzEAuHKMeDHGihRWkI3z-64" value="+ giveInsurance()&lt;br&gt;+ addpolicy()" style="text;strokeColor=none;fillColor=none;align=left;verticalAlign=top;spacingLeft=4;spacingRight=4;overflow=hidden;rotatable=0;points=[[0,0.5],[1,0.5]];portConstraint=eastwest;whiteSpace=wrap;html=1;fontColor=#000000;" parent="IzEAuHKMeDHGihRWkI3z-61" vertex="1">
          <mxGeometry y="118" width="160" height="42" as="geometry" />
        </mxCell>
        <mxCell id="IzEAuHKMeDHGihRWkI3z-65" value="&lt;i&gt;&lt;font style=&quot;font-size: 14px;&quot;&gt;Homeless_pet&lt;/font&gt;&lt;/i&gt;" style="swimlane;fontStyle=1;align=center;verticalAlign=top;childLayout=stackLayout;horizontal=1;startSize=26;horizontalStack=0;resizeParent=1;resizeParentMax=0;resizeLast=0;collapsible=1;marginBottom=0;whiteSpace=wrap;html=1;fillColor=#0050ef;fontColor=#FFFFFF;strokeColor=#001DBC;strokeWidth=3;" parent="1" vertex="1">
          <mxGeometry x="580" y="214" width="160" height="60" as="geometry">
            <mxRectangle x="310" y="80" width="90" height="30" as="alternateBounds" />
          </mxGeometry>
        </mxCell>
        <mxCell id="IzEAuHKMeDHGihRWkI3z-66" value="- id : int" style="text;strokeColor=none;fillColor=none;align=left;verticalAlign=top;spacingLeft=4;spacingRight=4;overflow=hidden;rotatable=0;points=[[0,0.5],[1,0.5]];portConstraint=eastwest;whiteSpace=wrap;html=1;fontColor=#000000;" parent="IzEAuHKMeDHGihRWkI3z-65" vertex="1">
          <mxGeometry y="26" width="160" height="26" as="geometry" />
        </mxCell>
        <mxCell id="IzEAuHKMeDHGihRWkI3z-67" value="" style="line;strokeWidth=1;fillColor=none;align=left;verticalAlign=middle;spacingTop=-1;spacingLeft=3;spacingRight=3;rotatable=0;labelPosition=right;points=[];portConstraint=eastwest;strokeColor=inherit;fontColor=#000000;" parent="IzEAuHKMeDHGihRWkI3z-65" vertex="1">
          <mxGeometry y="52" width="160" height="8" as="geometry" />
        </mxCell>
        <mxCell id="IzEAuHKMeDHGihRWkI3z-69" value="&lt;i&gt;&lt;font style=&quot;font-size: 14px;&quot;&gt;Shelters&lt;/font&gt;&lt;/i&gt;" style="swimlane;fontStyle=1;align=center;verticalAlign=top;childLayout=stackLayout;horizontal=1;startSize=26;horizontalStack=0;resizeParent=1;resizeParentMax=0;resizeLast=0;collapsible=1;marginBottom=0;whiteSpace=wrap;html=1;fillColor=#0050ef;fontColor=#FFFFFF;strokeColor=#001DBC;strokeWidth=3;" parent="1" vertex="1">
          <mxGeometry x="640" y="290" width="160" height="120" as="geometry">
            <mxRectangle x="310" y="80" width="90" height="30" as="alternateBounds" />
          </mxGeometry>
        </mxCell>
        <mxCell id="IzEAuHKMeDHGihRWkI3z-70" value="-&amp;nbsp; id : int&lt;br&gt;- phoneNo : int" style="text;strokeColor=none;fillColor=none;align=left;verticalAlign=top;spacingLeft=4;spacingRight=4;overflow=hidden;rotatable=0;points=[[0,0.5],[1,0.5]];portConstraint=eastwest;whiteSpace=wrap;html=1;fontColor=#000000;" parent="IzEAuHKMeDHGihRWkI3z-69" vertex="1">
          <mxGeometry y="26" width="160" height="44" as="geometry" />
        </mxCell>
        <mxCell id="IzEAuHKMeDHGihRWkI3z-71" value="" style="line;strokeWidth=1;fillColor=none;align=left;verticalAlign=middle;spacingTop=-1;spacingLeft=3;spacingRight=3;rotatable=0;labelPosition=right;points=[];portConstraint=eastwest;strokeColor=inherit;fontColor=#000000;" parent="IzEAuHKMeDHGihRWkI3z-69" vertex="1">
          <mxGeometry y="70" width="160" height="8" as="geometry" />
        </mxCell>
        <mxCell id="IzEAuHKMeDHGihRWkI3z-72" value="+ addShelterDetails()&lt;br&gt;+ updateShelters()" style="text;strokeColor=none;fillColor=none;align=left;verticalAlign=top;spacingLeft=4;spacingRight=4;overflow=hidden;rotatable=0;points=[[0,0.5],[1,0.5]];portConstraint=eastwest;whiteSpace=wrap;html=1;fontColor=#000000;" parent="IzEAuHKMeDHGihRWkI3z-69" vertex="1">
          <mxGeometry y="78" width="160" height="42" as="geometry" />
        </mxCell>
        <mxCell id="IzEAuHKMeDHGihRWkI3z-73" value="&lt;i&gt;&lt;font style=&quot;font-size: 14px;&quot;&gt;Pet_FunelShop&lt;/font&gt;&lt;/i&gt;" style="swimlane;fontStyle=1;align=center;verticalAlign=top;childLayout=stackLayout;horizontal=1;startSize=26;horizontalStack=0;resizeParent=1;resizeParentMax=0;resizeLast=0;collapsible=1;marginBottom=0;whiteSpace=wrap;html=1;fillColor=#0050ef;strokeColor=#001DBC;strokeWidth=3;fontColor=#FFFFFF;" parent="1" vertex="1">
          <mxGeometry x="-280" y="160" width="160" height="120" as="geometry">
            <mxRectangle x="310" y="80" width="90" height="30" as="alternateBounds" />
          </mxGeometry>
        </mxCell>
        <mxCell id="IzEAuHKMeDHGihRWkI3z-74" value="- id : int&lt;br&gt;- name : string&lt;br&gt;- phoneno : int&amp;nbsp;" style="text;strokeColor=none;fillColor=none;align=left;verticalAlign=top;spacingLeft=4;spacingRight=4;overflow=hidden;rotatable=0;points=[[0,0.5],[1,0.5]];portConstraint=eastwest;whiteSpace=wrap;html=1;fontColor=#000000;" parent="IzEAuHKMeDHGihRWkI3z-73" vertex="1">
          <mxGeometry y="26" width="160" height="54" as="geometry" />
        </mxCell>
        <mxCell id="IzEAuHKMeDHGihRWkI3z-75" value="" style="line;strokeWidth=1;fillColor=none;align=left;verticalAlign=middle;spacingTop=-1;spacingLeft=3;spacingRight=3;rotatable=0;labelPosition=right;points=[];portConstraint=eastwest;strokeColor=inherit;fontColor=#000000;" parent="IzEAuHKMeDHGihRWkI3z-73" vertex="1">
          <mxGeometry y="80" width="160" height="8" as="geometry" />
        </mxCell>
        <mxCell id="IzEAuHKMeDHGihRWkI3z-76" value="+ arrangePetFuneral( )" style="text;strokeColor=none;fillColor=none;align=left;verticalAlign=top;spacingLeft=4;spacingRight=4;overflow=hidden;rotatable=0;points=[[0,0.5],[1,0.5]];portConstraint=eastwest;whiteSpace=wrap;html=1;fontColor=#000000;" parent="IzEAuHKMeDHGihRWkI3z-73" vertex="1">
          <mxGeometry y="88" width="160" height="32" as="geometry" />
        </mxCell>
        <mxCell id="IzEAuHKMeDHGihRWkI3z-77" value="" style="endArrow=diamondThin;endFill=1;endSize=24;html=1;rounded=0;exitX=1.015;exitY=0.943;exitDx=0;exitDy=0;exitPerimeter=0;entryX=0;entryY=-0.041;entryDx=0;entryDy=0;entryPerimeter=0;fontColor=#000000;strokeWidth=2;strokeColor=#000000;" parent="1" source="IzEAuHKMeDHGihRWkI3z-8" target="IzEAuHKMeDHGihRWkI3z-2" edge="1">
          <mxGeometry width="160" relative="1" as="geometry">
            <mxPoint x="180" y="180" as="sourcePoint" />
            <mxPoint x="340" y="180" as="targetPoint" />
            <Array as="points" />
          </mxGeometry>
        </mxCell>
        <mxCell id="IzEAuHKMeDHGihRWkI3z-78" value="" style="endArrow=block;endSize=16;endFill=0;html=1;rounded=0;exitX=1.025;exitY=0.561;exitDx=0;exitDy=0;entryX=0.153;entryY=1.001;entryDx=0;entryDy=0;entryPerimeter=0;exitPerimeter=0;fontColor=#000000;strokeWidth=2;strokeColor=#000000;" parent="1" source="IzEAuHKMeDHGihRWkI3z-14" target="IzEAuHKMeDHGihRWkI3z-8" edge="1">
          <mxGeometry width="160" relative="1" as="geometry">
            <mxPoint x="24.200000000000045" y="378.7739999999999" as="sourcePoint" />
            <mxPoint x="21" y="203" as="targetPoint" />
            <Array as="points">
              <mxPoint x="22" y="380" />
            </Array>
          </mxGeometry>
        </mxCell>
        <mxCell id="IzEAuHKMeDHGihRWkI3z-79" value="" style="endArrow=diamondThin;endFill=0;endSize=24;html=1;rounded=0;exitX=0.291;exitY=1.023;exitDx=0;exitDy=0;exitPerimeter=0;entryX=0.315;entryY=0.023;entryDx=0;entryDy=0;entryPerimeter=0;fontColor=#000000;strokeWidth=2;strokeColor=#000000;" parent="1" source="IzEAuHKMeDHGihRWkI3z-16" target="IzEAuHKMeDHGihRWkI3z-25" edge="1">
          <mxGeometry width="160" relative="1" as="geometry">
            <mxPoint x="-30" y="500" as="sourcePoint" />
            <mxPoint x="130" y="500" as="targetPoint" />
          </mxGeometry>
        </mxCell>
        <mxCell id="IzEAuHKMeDHGihRWkI3z-94" value="" style="endArrow=block;endSize=16;endFill=0;html=1;rounded=0;entryX=0.414;entryY=1.047;entryDx=0;entryDy=0;entryPerimeter=0;fontColor=#000000;strokeWidth=2;strokeColor=#000000;" parent="1" target="IzEAuHKMeDHGihRWkI3z-8" edge="1">
          <mxGeometry width="160" relative="1" as="geometry">
            <mxPoint x="64" y="517" as="sourcePoint" />
            <mxPoint x="87.8" y="206" as="targetPoint" />
          </mxGeometry>
        </mxCell>
        <mxCell id="IzEAuHKMeDHGihRWkI3z-95" value="" style="endArrow=diamondThin;endFill=1;endSize=24;html=1;rounded=0;entryX=0.722;entryY=1.047;entryDx=0;entryDy=0;entryPerimeter=0;exitX=0;exitY=0.25;exitDx=0;exitDy=0;fontColor=#000000;strokeWidth=2;strokeColor=#000000;" parent="1" source="IzEAuHKMeDHGihRWkI3z-29" target="IzEAuHKMeDHGihRWkI3z-8" edge="1">
          <mxGeometry width="160" relative="1" as="geometry">
            <mxPoint x="390" y="250" as="sourcePoint" />
            <mxPoint x="550" y="250" as="targetPoint" />
            <Array as="points">
              <mxPoint x="116" y="421" />
            </Array>
          </mxGeometry>
        </mxCell>
        <mxCell id="IzEAuHKMeDHGihRWkI3z-96" value="" style="endArrow=block;endSize=16;endFill=0;html=1;rounded=0;exitX=-0.005;exitY=0.903;exitDx=0;exitDy=0;exitPerimeter=0;fontColor=#000000;strokeWidth=2;strokeColor=#000000;" parent="1" source="IzEAuHKMeDHGihRWkI3z-12" edge="1">
          <mxGeometry width="160" relative="1" as="geometry">
            <mxPoint x="649.8" y="120.39999999999998" as="sourcePoint" />
            <mxPoint x="156" y="133" as="targetPoint" />
            <Array as="points" />
          </mxGeometry>
        </mxCell>
        <mxCell id="IzEAuHKMeDHGihRWkI3z-97" value="" style="endArrow=diamondThin;endFill=1;endSize=24;html=1;rounded=0;entryX=0.498;entryY=1.1;entryDx=0;entryDy=0;entryPerimeter=0;fontColor=#000000;strokeWidth=2;strokeColor=#000000;" parent="1" target="IzEAuHKMeDHGihRWkI3z-4" edge="1">
          <mxGeometry width="160" relative="1" as="geometry">
            <mxPoint x="380" y="399" as="sourcePoint" />
            <mxPoint x="213.8" y="169.79" as="targetPoint" />
          </mxGeometry>
        </mxCell>
        <mxCell id="IzEAuHKMeDHGihRWkI3z-98" value="" style="endArrow=block;endSize=16;endFill=0;html=1;rounded=0;fontColor=#000000;strokeWidth=2;strokeColor=#000000;" parent="1" edge="1">
          <mxGeometry width="160" relative="1" as="geometry">
            <mxPoint x="350" y="540" as="sourcePoint" />
            <mxPoint x="350" y="480" as="targetPoint" />
          </mxGeometry>
        </mxCell>
        <mxCell id="IzEAuHKMeDHGihRWkI3z-99" value="" style="endArrow=block;endSize=16;endFill=0;html=1;rounded=0;exitX=0.75;exitY=0;exitDx=0;exitDy=0;entryX=-0.018;entryY=0.012;entryDx=0;entryDy=0;entryPerimeter=0;fontColor=#000000;strokeWidth=2;strokeColor=#000000;" parent="1" source="IzEAuHKMeDHGihRWkI3z-17" target="IzEAuHKMeDHGihRWkI3z-32" edge="1">
          <mxGeometry width="160" relative="1" as="geometry">
            <mxPoint x="321.44" y="549.82" as="sourcePoint" />
            <mxPoint x="320.44" y="375.82" as="targetPoint" />
            <Array as="points">
              <mxPoint x="110" y="460" />
            </Array>
          </mxGeometry>
        </mxCell>
        <mxCell id="IzEAuHKMeDHGihRWkI3z-100" value="" style="endArrow=block;endSize=16;endFill=0;html=1;rounded=0;exitX=0.31;exitY=-0.03;exitDx=0;exitDy=0;exitPerimeter=0;entryX=0.776;entryY=0.946;entryDx=0;entryDy=0;entryPerimeter=0;fontColor=#000000;strokeWidth=2;strokeColor=#000000;" parent="1" source="IzEAuHKMeDHGihRWkI3z-57" target="IzEAuHKMeDHGihRWkI3z-32" edge="1">
          <mxGeometry width="160" relative="1" as="geometry">
            <mxPoint x="571.44" y="529.6" as="sourcePoint" />
            <mxPoint x="570.44" y="355.6" as="targetPoint" />
          </mxGeometry>
        </mxCell>
        <mxCell id="IzEAuHKMeDHGihRWkI3z-101" value="" style="endArrow=block;endSize=16;endFill=0;html=1;rounded=0;exitX=0.25;exitY=0;exitDx=0;exitDy=0;entryX=1;entryY=0.923;entryDx=0;entryDy=0;entryPerimeter=0;fontColor=#000000;strokeWidth=2;strokeColor=#000000;" parent="1" source="IzEAuHKMeDHGihRWkI3z-61" target="IzEAuHKMeDHGihRWkI3z-30" edge="1">
          <mxGeometry width="160" relative="1" as="geometry">
            <mxPoint x="782.84" y="512.4" as="sourcePoint" />
            <mxPoint x="659.84" y="340.4" as="targetPoint" />
            <Array as="points">
              <mxPoint x="680" y="450" />
            </Array>
          </mxGeometry>
        </mxCell>
        <mxCell id="IzEAuHKMeDHGihRWkI3z-102" value="&lt;i&gt;&lt;font style=&quot;font-size: 14px;&quot;&gt;Store(shop)&lt;/font&gt;&lt;/i&gt;" style="swimlane;fontStyle=1;align=center;verticalAlign=top;childLayout=stackLayout;horizontal=1;startSize=26;horizontalStack=0;resizeParent=1;resizeParentMax=0;resizeLast=0;collapsible=1;marginBottom=0;whiteSpace=wrap;html=1;fillColor=#0050ef;strokeColor=#001DBC;strokeWidth=3;fontColor=#FFFFFF;" parent="1" vertex="1">
          <mxGeometry x="300" y="-70" width="160" height="180" as="geometry">
            <mxRectangle x="310" y="80" width="90" height="30" as="alternateBounds" />
          </mxGeometry>
        </mxCell>
        <mxCell id="IzEAuHKMeDHGihRWkI3z-103" value="-&amp;nbsp; id : int&lt;br&gt;- name :string&lt;br&gt;- email : string&lt;br&gt;- phoneNo : int" style="text;strokeColor=none;fillColor=none;align=left;verticalAlign=top;spacingLeft=4;spacingRight=4;overflow=hidden;rotatable=0;points=[[0,0.5],[1,0.5]];portConstraint=eastwest;whiteSpace=wrap;html=1;fontColor=#000000;" parent="IzEAuHKMeDHGihRWkI3z-102" vertex="1">
          <mxGeometry y="26" width="160" height="74" as="geometry" />
        </mxCell>
        <mxCell id="IzEAuHKMeDHGihRWkI3z-104" value="" style="line;strokeWidth=1;fillColor=none;align=left;verticalAlign=middle;spacingTop=-1;spacingLeft=3;spacingRight=3;rotatable=0;labelPosition=right;points=[];portConstraint=eastwest;strokeColor=inherit;fontColor=#000000;" parent="IzEAuHKMeDHGihRWkI3z-102" vertex="1">
          <mxGeometry y="100" width="160" height="8" as="geometry" />
        </mxCell>
        <mxCell id="IzEAuHKMeDHGihRWkI3z-105" value="+ sellFoods()&lt;br&gt;+ sellPets()&lt;br&gt;+ sellOtherItems()&lt;br&gt;+delivery()" style="text;strokeColor=none;fillColor=none;align=left;verticalAlign=top;spacingLeft=4;spacingRight=4;overflow=hidden;rotatable=0;points=[[0,0.5],[1,0.5]];portConstraint=eastwest;whiteSpace=wrap;html=1;fontColor=#000000;" parent="IzEAuHKMeDHGihRWkI3z-102" vertex="1">
          <mxGeometry y="108" width="160" height="72" as="geometry" />
        </mxCell>
        <mxCell id="IzEAuHKMeDHGihRWkI3z-106" value="" style="endArrow=diamondThin;endFill=0;endSize=24;html=1;rounded=0;exitX=0.01;exitY=0.223;exitDx=0;exitDy=0;exitPerimeter=0;entryX=1.015;entryY=0.062;entryDx=0;entryDy=0;entryPerimeter=0;fontColor=#990000;strokeWidth=2;strokeColor=#000000;" parent="1" source="IzEAuHKMeDHGihRWkI3z-103" target="IzEAuHKMeDHGihRWkI3z-5" edge="1">
          <mxGeometry width="160" relative="1" as="geometry">
            <mxPoint x="340.32" y="-103.41000000000003" as="sourcePoint" />
            <mxPoint x="309.32" y="-170.41000000000003" as="targetPoint" />
          </mxGeometry>
        </mxCell>
        <mxCell id="IzEAuHKMeDHGihRWkI3z-107" value="" style="endArrow=diamondThin;endFill=0;endSize=24;html=1;rounded=0;entryX=0;entryY=-0.003;entryDx=0;entryDy=0;entryPerimeter=0;fontColor=#000000;strokeColor=#000000;strokeWidth=2;" parent="1" target="IzEAuHKMeDHGihRWkI3z-10" edge="1">
          <mxGeometry width="160" relative="1" as="geometry">
            <mxPoint x="460" y="-14" as="sourcePoint" />
            <mxPoint x="600.2" y="48.2" as="targetPoint" />
          </mxGeometry>
        </mxCell>
        <mxCell id="IzEAuHKMeDHGihRWkI3z-108" value="" style="endArrow=diamondThin;endFill=0;endSize=24;html=1;rounded=0;entryX=1.005;entryY=0.905;entryDx=0;entryDy=0;entryPerimeter=0;exitX=1;exitY=0.5;exitDx=0;exitDy=0;fontColor=#000000;strokeWidth=2;strokeColor=#000000;" parent="1" source="IzEAuHKMeDHGihRWkI3z-70" target="IzEAuHKMeDHGihRWkI3z-10" edge="1">
          <mxGeometry width="160" relative="1" as="geometry">
            <mxPoint x="890" y="340" as="sourcePoint" />
            <mxPoint x="700" y="48.88999999999989" as="targetPoint" />
            <Array as="points">
              <mxPoint x="850" y="338" />
              <mxPoint x="850" y="53" />
            </Array>
          </mxGeometry>
        </mxCell>
        <mxCell id="IzEAuHKMeDHGihRWkI3z-109" value="" style="endArrow=diamondThin;endFill=0;endSize=24;html=1;rounded=0;entryX=0.625;entryY=1.058;entryDx=0;entryDy=0;entryPerimeter=0;exitX=0.375;exitY=0.05;exitDx=0;exitDy=0;exitPerimeter=0;fontColor=#000000;strokeWidth=2;strokeColor=#000000;" parent="1" source="IzEAuHKMeDHGihRWkI3z-65" target="IzEAuHKMeDHGihRWkI3z-12" edge="1">
          <mxGeometry width="160" relative="1" as="geometry">
            <mxPoint x="614" y="170" as="sourcePoint" />
            <mxPoint x="800" y="-120" as="targetPoint" />
          </mxGeometry>
        </mxCell>
        <mxCell id="IzEAuHKMeDHGihRWkI3z-110" value="" style="endArrow=diamondThin;endFill=1;endSize=24;html=1;rounded=0;entryX=0.651;entryY=-0.043;entryDx=0;entryDy=0;entryPerimeter=0;exitX=-0.023;exitY=1.014;exitDx=0;exitDy=0;exitPerimeter=0;fontColor=#000000;strokeWidth=2;strokeColor=#000000;" parent="1" source="IzEAuHKMeDHGihRWkI3z-70" target="IzEAuHKMeDHGihRWkI3z-29" edge="1">
          <mxGeometry width="160" relative="1" as="geometry">
            <mxPoint x="747.76" y="310" as="sourcePoint" />
            <mxPoint x="459.9999999999998" y="368.4500000000003" as="targetPoint" />
            <Array as="points">
              <mxPoint x="444" y="360" />
            </Array>
          </mxGeometry>
        </mxCell>
        <mxCell id="IzEAuHKMeDHGihRWkI3z-112" value="" style="endArrow=diamondThin;endFill=1;endSize=24;html=1;rounded=0;entryX=1;entryY=0.5;entryDx=0;entryDy=0;exitX=0.253;exitY=1;exitDx=0;exitDy=0;exitPerimeter=0;fontColor=#000000;strokeWidth=2;strokeColor=#000000;" parent="1" source="IzEAuHKMeDHGihRWkI3z-67" target="IzEAuHKMeDHGihRWkI3z-4" edge="1">
          <mxGeometry width="160" relative="1" as="geometry">
            <mxPoint x="606.6800000000001" y="231.664" as="sourcePoint" />
            <mxPoint x="472.7199999999998" y="137.10400000000004" as="targetPoint" />
            <Array as="points">
              <mxPoint x="620" y="298" />
            </Array>
          </mxGeometry>
        </mxCell>
        <mxCell id="IzEAuHKMeDHGihRWkI3z-113" value="" style="endArrow=diamondThin;endFill=0;endSize=24;html=1;rounded=0;exitX=1.026;exitY=0.164;exitDx=0;exitDy=0;exitPerimeter=0;entryX=-0.039;entryY=0.916;entryDx=0;entryDy=0;entryPerimeter=0;fontColor=#000000;strokeWidth=2;strokeColor=#000000;" parent="1" source="IzEAuHKMeDHGihRWkI3z-73" target="IzEAuHKMeDHGihRWkI3z-8" edge="1">
          <mxGeometry width="160" relative="1" as="geometry">
            <mxPoint x="-79.68" y="296.59" as="sourcePoint" />
            <mxPoint x="-110.68" y="229.59" as="targetPoint" />
          </mxGeometry>
        </mxCell>
        <mxCell id="IzEAuHKMeDHGihRWkI3z-114" value="" style="endArrow=none;html=1;rounded=0;entryX=1;entryY=0.5;entryDx=0;entryDy=0;exitX=-0.024;exitY=0.289;exitDx=0;exitDy=0;exitPerimeter=0;fontColor=#000000;strokeWidth=2;strokeColor=#000000;" parent="1" source="IzEAuHKMeDHGihRWkI3z-6" target="IzEAuHKMeDHGihRWkI3z-22" edge="1">
          <mxGeometry width="50" height="50" relative="1" as="geometry">
            <mxPoint x="30" y="70" as="sourcePoint" />
            <mxPoint x="80" y="20" as="targetPoint" />
          </mxGeometry>
        </mxCell>
        <mxCell id="IzEAuHKMeDHGihRWkI3z-115" value="" style="endArrow=diamondThin;endFill=1;endSize=24;html=1;rounded=0;exitX=0.125;exitY=1.058;exitDx=0;exitDy=0;exitPerimeter=0;entryX=1.02;entryY=0.792;entryDx=0;entryDy=0;entryPerimeter=0;fontColor=#000000;strokeWidth=2;strokeColor=#000000;" parent="1" source="IzEAuHKMeDHGihRWkI3z-12" target="IzEAuHKMeDHGihRWkI3z-2" edge="1">
          <mxGeometry width="160" relative="1" as="geometry">
            <mxPoint x="557.48" y="73.78399999999999" as="sourcePoint" />
            <mxPoint x="380" y="170" as="targetPoint" />
            <Array as="points">
              <mxPoint x="560" y="245" />
            </Array>
          </mxGeometry>
        </mxCell>
        <mxCell id="IzEAuHKMeDHGihRWkI3z-118" value="0..*" style="text;html=1;strokeColor=none;fillColor=none;align=center;verticalAlign=middle;whiteSpace=wrap;rounded=0;fontColor=#000000;" parent="1" vertex="1">
          <mxGeometry x="-130" y="-15" width="37" height="23" as="geometry" />
        </mxCell>
        <mxCell id="IzEAuHKMeDHGihRWkI3z-120" value="1" style="text;html=1;strokeColor=none;fillColor=none;align=center;verticalAlign=middle;whiteSpace=wrap;rounded=0;fontColor=#000000;" parent="1" vertex="1">
          <mxGeometry x="183" y="-50" width="37" height="23" as="geometry" />
        </mxCell>
        <mxCell id="IzEAuHKMeDHGihRWkI3z-121" value="1" style="text;html=1;strokeColor=none;fillColor=none;align=center;verticalAlign=middle;whiteSpace=wrap;rounded=0;fontColor=#000000;" parent="1" vertex="1">
          <mxGeometry x="-55" y="157" width="37" height="23" as="geometry" />
        </mxCell>
        <mxCell id="IzEAuHKMeDHGihRWkI3z-122" value="1" style="text;html=1;strokeColor=none;fillColor=none;align=center;verticalAlign=middle;whiteSpace=wrap;rounded=0;fontColor=#000000;" parent="1" vertex="1">
          <mxGeometry x="-124" y="157" width="37" height="23" as="geometry" />
        </mxCell>
        <mxCell id="IzEAuHKMeDHGihRWkI3z-123" value="0..*" style="text;html=1;strokeColor=none;fillColor=none;align=center;verticalAlign=middle;whiteSpace=wrap;rounded=0;fontColor=#000000;" parent="1" vertex="1">
          <mxGeometry x="259" y="-50" width="37" height="23" as="geometry" />
        </mxCell>
        <mxCell id="IzEAuHKMeDHGihRWkI3z-124" value="1" style="text;html=1;strokeColor=none;fillColor=none;align=center;verticalAlign=middle;whiteSpace=wrap;rounded=0;fontColor=#000000;" parent="1" vertex="1">
          <mxGeometry x="488" y="-38" width="37" height="23" as="geometry" />
        </mxCell>
        <mxCell id="IzEAuHKMeDHGihRWkI3z-125" value="0..*" style="text;html=1;strokeColor=none;fillColor=none;align=center;verticalAlign=middle;whiteSpace=wrap;rounded=0;fontColor=#000000;" parent="1" vertex="1">
          <mxGeometry x="803" y="311" width="37" height="23" as="geometry" />
        </mxCell>
        <mxCell id="IzEAuHKMeDHGihRWkI3z-126" value="0..*" style="text;html=1;strokeColor=none;fillColor=none;align=center;verticalAlign=middle;whiteSpace=wrap;rounded=0;fontColor=#000000;" parent="1" vertex="1">
          <mxGeometry x="506" y="110" width="37" height="23" as="geometry" />
        </mxCell>
        <mxCell id="IzEAuHKMeDHGihRWkI3z-127" value="1" style="text;html=1;strokeColor=none;fillColor=none;align=center;verticalAlign=middle;whiteSpace=wrap;rounded=0;fontColor=#000000;" parent="1" vertex="1">
          <mxGeometry x="178" y="110" width="37" height="23" as="geometry" />
        </mxCell>
        <mxCell id="IzEAuHKMeDHGihRWkI3z-128" value="1" style="text;html=1;strokeColor=none;fillColor=none;align=center;verticalAlign=middle;whiteSpace=wrap;rounded=0;fontColor=#000000;" parent="1" vertex="1">
          <mxGeometry x="733" y="26" width="37" height="23" as="geometry" />
        </mxCell>
        <mxCell id="IzEAuHKMeDHGihRWkI3z-130" value="1" style="text;html=1;strokeColor=none;fillColor=none;align=center;verticalAlign=middle;whiteSpace=wrap;rounded=0;fontColor=#000000;" parent="1" vertex="1">
          <mxGeometry x="494" y="222" width="37" height="23" as="geometry" />
        </mxCell>
        <mxCell id="IzEAuHKMeDHGihRWkI3z-131" value="0..*" style="text;html=1;strokeColor=none;fillColor=none;align=center;verticalAlign=middle;whiteSpace=wrap;rounded=0;fontColor=#000000;" parent="1" vertex="1">
          <mxGeometry x="460" y="-35" width="37" height="23" as="geometry" />
        </mxCell>
        <mxCell id="IzEAuHKMeDHGihRWkI3z-132" value="1" style="text;html=1;strokeColor=none;fillColor=none;align=center;verticalAlign=middle;whiteSpace=wrap;rounded=0;fontColor=#000000;" parent="1" vertex="1">
          <mxGeometry x="116" y="222" width="37" height="23" as="geometry" />
        </mxCell>
        <mxCell id="IzEAuHKMeDHGihRWkI3z-134" value="0..*" style="text;html=1;strokeColor=none;fillColor=none;align=center;verticalAlign=middle;whiteSpace=wrap;rounded=0;fontColor=#000000;" parent="1" vertex="1">
          <mxGeometry x="641.5" y="191" width="37" height="23" as="geometry" />
        </mxCell>
        <mxCell id="IzEAuHKMeDHGihRWkI3z-135" value="1" style="text;html=1;strokeColor=none;fillColor=none;align=center;verticalAlign=middle;whiteSpace=wrap;rounded=0;fontColor=#000000;" parent="1" vertex="1">
          <mxGeometry x="636.5" y="167" width="37" height="23" as="geometry" />
        </mxCell>
        <mxCell id="IzEAuHKMeDHGihRWkI3z-136" value="1" style="text;html=1;strokeColor=none;fillColor=none;align=center;verticalAlign=middle;whiteSpace=wrap;rounded=0;fontColor=#000000;" parent="1" vertex="1">
          <mxGeometry x="488" y="274" width="37" height="23" as="geometry" />
        </mxCell>
        <mxCell id="IzEAuHKMeDHGihRWkI3z-137" value="0..*" style="text;html=1;strokeColor=none;fillColor=none;align=center;verticalAlign=middle;whiteSpace=wrap;rounded=0;fontColor=#000000;" parent="1" vertex="1">
          <mxGeometry x="583" y="274" width="37" height="23" as="geometry" />
        </mxCell>
        <mxCell id="IzEAuHKMeDHGihRWkI3z-138" value="0..*" style="text;html=1;strokeColor=none;fillColor=none;align=center;verticalAlign=middle;whiteSpace=wrap;rounded=0;fontColor=#000000;" parent="1" vertex="1">
          <mxGeometry x="601.5" y="334" width="37" height="23" as="geometry" />
        </mxCell>
        <mxCell id="IzEAuHKMeDHGihRWkI3z-139" value="1" style="text;html=1;strokeColor=none;fillColor=none;align=center;verticalAlign=middle;whiteSpace=wrap;rounded=0;fontColor=#000000;" parent="1" vertex="1">
          <mxGeometry x="445" y="358" width="37" height="23" as="geometry" />
        </mxCell>
        <mxCell id="IzEAuHKMeDHGihRWkI3z-140" value="1" style="text;html=1;strokeColor=none;fillColor=none;align=center;verticalAlign=middle;whiteSpace=wrap;rounded=0;fontColor=#000000;" parent="1" vertex="1">
          <mxGeometry x="373" y="381" width="37" height="23" as="geometry" />
        </mxCell>
        <mxCell id="IzEAuHKMeDHGihRWkI3z-141" value="1" style="text;html=1;strokeColor=none;fillColor=none;align=center;verticalAlign=middle;whiteSpace=wrap;rounded=0;fontColor=#000000;" parent="1" vertex="1">
          <mxGeometry x="373" y="358" width="37" height="23" as="geometry" />
        </mxCell>
        <mxCell id="IzEAuHKMeDHGihRWkI3z-142" value="1" style="text;html=1;strokeColor=none;fillColor=none;align=center;verticalAlign=middle;whiteSpace=wrap;rounded=0;fontColor=#000000;" parent="1" vertex="1">
          <mxGeometry x="523" y="424" width="37" height="23" as="geometry" />
        </mxCell>
        <mxCell id="IzEAuHKMeDHGihRWkI3z-143" value="0..*" style="text;html=1;strokeColor=none;fillColor=none;align=center;verticalAlign=middle;whiteSpace=wrap;rounded=0;fontColor=#000000;" parent="1" vertex="1">
          <mxGeometry x="685" y="518" width="37" height="23" as="geometry" />
        </mxCell>
        <mxCell id="IzEAuHKMeDHGihRWkI3z-144" value="1" style="text;html=1;strokeColor=none;fillColor=none;align=center;verticalAlign=middle;whiteSpace=wrap;rounded=0;fontColor=#000000;" parent="1" vertex="1">
          <mxGeometry x="466" y="502" width="37" height="23" as="geometry" />
        </mxCell>
        <mxCell id="IzEAuHKMeDHGihRWkI3z-145" value="1" style="text;html=1;strokeColor=none;fillColor=none;align=center;verticalAlign=middle;whiteSpace=wrap;rounded=0;fontColor=#000000;" parent="1" vertex="1">
          <mxGeometry x="467" y="513" width="37" height="37" as="geometry" />
        </mxCell>
        <mxCell id="IzEAuHKMeDHGihRWkI3z-146" value="1" style="text;html=1;strokeColor=none;fillColor=none;align=center;verticalAlign=middle;whiteSpace=wrap;rounded=0;fontColor=#000000;" parent="1" vertex="1">
          <mxGeometry x="351" y="513" width="37" height="37" as="geometry" />
        </mxCell>
        <mxCell id="IzEAuHKMeDHGihRWkI3z-147" value="1" style="text;html=1;strokeColor=none;fillColor=none;align=center;verticalAlign=middle;whiteSpace=wrap;rounded=0;fontColor=#000000;" parent="1" vertex="1">
          <mxGeometry x="351" y="502" width="37" height="23" as="geometry" />
        </mxCell>
        <mxCell id="IzEAuHKMeDHGihRWkI3z-149" value="1" style="text;html=1;strokeColor=none;fillColor=none;align=center;verticalAlign=middle;whiteSpace=wrap;rounded=0;fontColor=#000000;" parent="1" vertex="1">
          <mxGeometry x="277" y="461" width="37" height="23" as="geometry" />
        </mxCell>
        <mxCell id="IzEAuHKMeDHGihRWkI3z-150" value="0..*" style="text;html=1;strokeColor=none;fillColor=none;align=center;verticalAlign=middle;whiteSpace=wrap;rounded=0;fontColor=#000000;" parent="1" vertex="1">
          <mxGeometry x="67" y="490" width="37" height="23" as="geometry" />
        </mxCell>
        <mxCell id="IzEAuHKMeDHGihRWkI3z-151" value="1" style="text;html=1;strokeColor=none;fillColor=none;align=center;verticalAlign=middle;whiteSpace=wrap;rounded=0;fontColor=#000000;" parent="1" vertex="1">
          <mxGeometry x="300" y="400" width="37" height="23" as="geometry" />
        </mxCell>
        <mxCell id="IzEAuHKMeDHGihRWkI3z-152" value="1" style="text;html=1;strokeColor=none;fillColor=none;align=center;verticalAlign=middle;whiteSpace=wrap;rounded=0;fontColor=#000000;" parent="1" vertex="1">
          <mxGeometry x="70" y="222" width="37" height="23" as="geometry" />
        </mxCell>
        <mxCell id="IzEAuHKMeDHGihRWkI3z-153" value="0..*" style="text;html=1;strokeColor=none;fillColor=none;align=center;verticalAlign=middle;whiteSpace=wrap;rounded=0;fontColor=#000000;" parent="1" vertex="1">
          <mxGeometry x="113" y="495" width="37" height="23" as="geometry" />
        </mxCell>
        <mxCell id="IzEAuHKMeDHGihRWkI3z-154" value="0..*" style="text;html=1;strokeColor=none;fillColor=none;align=center;verticalAlign=middle;whiteSpace=wrap;rounded=0;fontColor=#000000;" parent="1" vertex="1">
          <mxGeometry x="-118" y="358" width="37" height="23" as="geometry" />
        </mxCell>
        <mxCell id="IzEAuHKMeDHGihRWkI3z-155" value="1" style="text;html=1;strokeColor=none;fillColor=none;align=center;verticalAlign=middle;whiteSpace=wrap;rounded=0;fontColor=#000000;" parent="1" vertex="1">
          <mxGeometry x="-10" y="208.5" width="37" height="23" as="geometry" />
        </mxCell>
        <mxCell id="IzEAuHKMeDHGihRWkI3z-156" value="0..*" style="text;html=1;strokeColor=none;fillColor=none;align=center;verticalAlign=middle;whiteSpace=wrap;rounded=0;fontColor=#000000;" parent="1" vertex="1">
          <mxGeometry x="-234" y="536" width="37" height="23" as="geometry" />
        </mxCell>
        <mxCell id="IzEAuHKMeDHGihRWkI3z-157" value="1" style="text;html=1;strokeColor=none;fillColor=none;align=center;verticalAlign=middle;whiteSpace=wrap;rounded=0;fontColor=#000000;" parent="1" vertex="1">
          <mxGeometry x="-234" y="499" width="37" height="23" as="geometry" />
        </mxCell>
        <mxCell id="IzEAuHKMeDHGihRWkI3z-158" value="1" style="text;html=1;strokeColor=none;fillColor=none;align=center;verticalAlign=middle;whiteSpace=wrap;rounded=0;fontColor=#000000;" parent="1" vertex="1">
          <mxGeometry x="-42" y="-15" width="37" height="23" as="geometry" />
        </mxCell>
        <mxCell id="IzEAuHKMeDHGihRWkI3z-159" value="1" style="text;html=1;strokeColor=none;fillColor=none;align=center;verticalAlign=middle;whiteSpace=wrap;rounded=0;fontColor=#000000;" parent="1" vertex="1">
          <mxGeometry x="160" y="157" width="37" height="23" as="geometry" />
        </mxCell>
        <mxCell id="IzEAuHKMeDHGihRWkI3z-160" value="1" style="text;html=1;strokeColor=none;fillColor=none;align=center;verticalAlign=middle;whiteSpace=wrap;rounded=0;fontColor=#000000;" parent="1" vertex="1">
          <mxGeometry x="233" y="160" width="37" height="23" as="geometry" />
        </mxCell>
        <mxCell id="IzEAuHKMeDHGihRWkI3z-161" value="1" style="text;html=1;strokeColor=none;fillColor=none;align=center;verticalAlign=middle;whiteSpace=wrap;rounded=0;fontColor=#000000;" parent="1" vertex="1">
          <mxGeometry x="520" y="146" width="37" height="23" as="geometry" />
        </mxCell>
      </root>
    </mxGraphModel>
  </diagram>
</mxfile>
